<svg width="400" height="400" viewBox="0 0 400 400" fill="none" xmlns="http://www.w3.org/2000/svg">
<path d="M205 32C214.565 32 223.084 36.4768 228.577 43.4493C232.961 49.0144 238.044 54.5123 244.76 56.7666C294.659 73.5149 332.843 115.784 343.805 168.066C345.15 174.485 349.264 179.946 354.369 184.063C365.731 193.228 373 207.265 373 223C373 245.436 358.223 264.419 337.871 270.75C331.611 272.698 325.772 276.243 322.153 281.709C318.264 287.583 313.974 293.167 309.32 298.421C308.449 299.404 308 300.686 308 302C308 324.091 290.091 342 268 342C265.201 342 262.469 341.712 259.832 341.164C254.612 340.079 249.142 339.79 244.079 341.462C236.182 344.07 227.994 346.039 219.576 347.309C213.189 348.273 207.614 352.037 203.002 356.56C195.788 363.636 185.904 368 175 368C159.261 368 145.644 358.909 139.115 345.692C136.256 339.903 132.255 334.497 126.557 331.461C83.4809 308.505 52.9227 265.154 47.7724 214.294C46.9245 205.92 41.1611 198.828 35.3375 192.752C30.1733 187.364 27 180.053 27 172C27 155.431 40.4315 142 57 142C57.721 142 58.3816 141.581 58.661 140.917C60.1776 137.309 61.8311 133.773 63.6151 130.315C66.9507 123.85 66.5938 116.13 64.0758 109.305C62.0865 103.913 61 98.0832 61 92C61 64.3858 83.3858 42 111 42C120.586 42 129.541 44.6975 137.149 49.3747C143.848 53.4931 151.908 55.6777 159.524 53.7197C161.698 53.1606 163.892 52.649 166.104 52.1861C173.041 50.7345 178.732 45.8682 183.729 40.844C189.163 35.3815 196.687 32 205 32Z" fill="url(#paint0_linear_3_41)" fill-opacity="0.4"/>
<path d="M205 32C214.565 32 223.084 36.4768 228.577 43.4493C232.961 49.0144 238.044 54.5123 244.76 56.7666C294.659 73.5149 332.843 115.784 343.805 168.066C345.15 174.485 349.264 179.946 354.369 184.063C365.731 193.228 373 207.265 373 223C373 245.436 358.223 264.419 337.871 270.75C331.611 272.698 325.772 276.243 322.153 281.709C318.264 287.583 313.974 293.167 309.32 298.421C308.449 299.404 308 300.686 308 302C308 324.091 290.091 342 268 342C265.201 342 262.469 341.712 259.832 341.164C254.612 340.079 249.142 339.79 244.079 341.462C236.182 344.07 227.994 346.039 219.576 347.309C213.189 348.273 207.614 352.037 203.002 356.56C195.788 363.636 185.904 368 175 368C159.261 368 145.644 358.909 139.115 345.692C136.256 339.903 132.255 334.497 126.557 331.461C83.4809 308.505 52.9227 265.154 47.7724 214.294C46.9245 205.92 41.1611 198.828 35.3375 192.752C30.1733 187.364 27 180.053 27 172C27 155.431 40.4315 142 57 142C57.721 142 58.3816 141.581 58.661 140.917C60.1776 137.309 61.8311 133.773 63.6151 130.315C66.9507 123.85 66.5938 116.13 64.0758 109.305C62.0865 103.913 61 98.0832 61 92C61 64.3858 83.3858 42 111 42C120.586 42 129.541 44.6975 137.149 49.3747C143.848 53.4931 151.908 55.6777 159.524 53.7197C161.698 53.1606 163.892 52.649 166.104 52.1861C173.041 50.7345 178.732 45.8682 183.729 40.844C189.163 35.3815 196.687 32 205 32Z" fill="url(#paint1_linear_3_41)" fill-opacity="0.4"/>
<path d="M205 32C214.565 32 223.084 36.4768 228.577 43.4493C232.961 49.0144 238.044 54.5123 244.76 56.7666C294.659 73.5149 332.843 115.784 343.805 168.066C345.15 174.485 349.264 179.946 354.369 184.063C365.731 193.228 373 207.265 373 223C373 245.436 358.223 264.419 337.871 270.75C331.611 272.698 325.772 276.243 322.153 281.709C318.264 287.583 313.974 293.167 309.32 298.421C308.449 299.404 308 300.686 308 302C308 324.091 290.091 342 268 342C265.201 342 262.469 341.712 259.832 341.164C254.612 340.079 249.142 339.79 244.079 341.462C236.182 344.07 227.994 346.039 219.576 347.309C213.189 348.273 207.614 352.037 203.002 356.56C195.788 363.636 185.904 368 175 368C159.261 368 145.644 358.909 139.115 345.692C136.256 339.903 132.255 334.497 126.557 331.461C83.4809 308.505 52.9227 265.154 47.7724 214.294C46.9245 205.92 41.1611 198.828 35.3375 192.752C30.1733 187.364 27 180.053 27 172C27 155.431 40.4315 142 57 142C57.721 142 58.3816 141.581 58.661 140.917C60.1776 137.309 61.8311 133.773 63.6151 130.315C66.9507 123.85 66.5938 116.13 64.0758 109.305C62.0865 103.913 61 98.0832 61 92C61 64.3858 83.3858 42 111 42C120.586 42 129.541 44.6975 137.149 49.3747C143.848 53.4931 151.908 55.6777 159.524 53.7197C161.698 53.1606 163.892 52.649 166.104 52.1861C173.041 50.7345 178.732 45.8682 183.729 40.844C189.163 35.3815 196.687 32 205 32Z" fill="url(#paint2_linear_3_41)" fill-opacity="0.4"/>
<g clip-path="url(#paint3_diamond_3_41_clip_path)" data-figma-skip-parse="true"><g transform="matrix(-0.1125 -0.135 0.135 -0.1125 195 184.5)"><rect x="0" y="0" width="1458.65" height="1410.93" fill="url(#paint3_diamond_3_41)" opacity="0.4" shape-rendering="crispEdges"/><rect x="0" y="0" width="1458.65" height="1410.93" transform="scale(1 -1)" fill="url(#paint3_diamond_3_41)" opacity="0.4" shape-rendering="crispEdges"/><rect x="0" y="0" width="1458.65" height="1410.93" transform="scale(-1 1)" fill="url(#paint3_diamond_3_41)" opacity="0.4" shape-rendering="crispEdges"/><rect x="0" y="0" width="1458.65" height="1410.93" transform="scale(-1)" fill="url(#paint3_diamond_3_41)" opacity="0.4" shape-rendering="crispEdges"/></g></g><path d="M205 32C214.565 32 223.084 36.4768 228.577 43.4493C232.961 49.0144 238.044 54.5123 244.76 56.7666C294.659 73.5149 332.843 115.784 343.805 168.066C345.15 174.485 349.264 179.946 354.369 184.063C365.731 193.228 373 207.265 373 223C373 245.436 358.223 264.419 337.871 270.75C331.611 272.698 325.772 276.243 322.153 281.709C318.264 287.583 313.974 293.167 309.32 298.421C308.449 299.404 308 300.686 308 302C308 324.091 290.091 342 268 342C265.201 342 262.469 341.712 259.832 341.164C254.612 340.079 249.142 339.79 244.079 341.462C236.182 344.07 227.994 346.039 219.576 347.309C213.189 348.273 207.614 352.037 203.002 356.56C195.788 363.636 185.904 368 175 368C159.261 368 145.644 358.909 139.115 345.692C136.256 339.903 132.255 334.497 126.557 331.461C83.4809 308.505 52.9227 265.154 47.7724 214.294C46.9245 205.92 41.1611 198.828 35.3375 192.752C30.1733 187.364 27 180.053 27 172C27 155.431 40.4315 142 57 142C57.721 142 58.3816 141.581 58.661 140.917C60.1776 137.309 61.8311 133.773 63.6151 130.315C66.9507 123.85 66.5938 116.13 64.0758 109.305C62.0865 103.913 61 98.0832 61 92C61 64.3858 83.3858 42 111 42C120.586 42 129.541 44.6975 137.149 49.3747C143.848 53.4931 151.908 55.6777 159.524 53.7197C161.698 53.1606 163.892 52.649 166.104 52.1861C173.041 50.7345 178.732 45.8682 183.729 40.844C189.163 35.3815 196.687 32 205 32Z" data-figma-gradient-fill="{&#34;type&#34;:&#34;GRADIENT_DIAMOND&#34;,&#34;stops&#34;:[{&#34;color&#34;:{&#34;r&#34;:0.98630934953689575,&#34;g&#34;:0.65912020206451416,&#34;b&#34;:0.65912020206451416,&#34;a&#34;:1.0},&#34;position&#34;:0.0},{&#34;color&#34;:{&#34;r&#34;:0.0,&#34;g&#34;:0.0,&#34;b&#34;:0.0,&#34;a&#34;:1.0},&#34;position&#34;:1.0}],&#34;stopsVar&#34;:[{&#34;color&#34;:{&#34;r&#34;:0.98630934953689575,&#34;g&#34;:0.65912020206451416,&#34;b&#34;:0.65912020206451416,&#34;a&#34;:1.0},&#34;position&#34;:0.0},{&#34;color&#34;:{&#34;r&#34;:0.0,&#34;g&#34;:0.0,&#34;b&#34;:0.0,&#34;a&#34;:1.0},&#34;position&#34;:1.0}],&#34;transform&#34;:{&#34;m00&#34;:-225.00001525878906,&#34;m01&#34;:270.0,&#34;m02&#34;:172.50,&#34;m10&#34;:-270.0,&#34;m11&#34;:-225.00001525878906,&#34;m12&#34;:432.0},&#34;opacity&#34;:0.40000000596046448,&#34;blendMode&#34;:&#34;NORMAL&#34;,&#34;visible&#34;:true}"/>
<mask id="path-5-inside-1_3_41" fill="white">
<path d="M205 32C214.565 32 223.084 36.4768 228.577 43.4493C232.961 49.0144 238.044 54.5123 244.76 56.7666C294.659 73.5149 332.843 115.784 343.805 168.066C345.15 174.485 349.264 179.946 354.369 184.063C365.731 193.228 373 207.265 373 223C373 245.436 358.223 264.419 337.871 270.75C331.611 272.698 325.772 276.243 322.153 281.709C318.264 287.583 313.974 293.167 309.32 298.421C308.449 299.404 308 300.686 308 302C308 324.091 290.091 342 268 342C265.201 342 262.469 341.712 259.832 341.164C254.612 340.079 249.142 339.79 244.079 341.462C236.182 344.07 227.994 346.039 219.576 347.309C213.189 348.273 207.614 352.037 203.002 356.56C195.788 363.636 185.904 368 175 368C159.261 368 145.644 358.909 139.115 345.692C136.256 339.903 132.255 334.497 126.557 331.461C83.4809 308.505 52.9227 265.154 47.7724 214.294C46.9245 205.92 41.1611 198.828 35.3375 192.752C30.1733 187.364 27 180.053 27 172C27 155.431 40.4315 142 57 142C57.721 142 58.3816 141.581 58.661 140.917C60.1776 137.309 61.8311 133.773 63.6151 130.315C66.9507 123.85 66.5938 116.13 64.0758 109.305C62.0865 103.913 61 98.0832 61 92C61 64.3858 83.3858 42 111 42C120.586 42 129.541 44.6975 137.149 49.3747C143.848 53.4931 151.908 55.6777 159.524 53.7197C161.698 53.1606 163.892 52.649 166.104 52.1861C173.041 50.7345 178.732 45.8682 183.729 40.844C189.163 35.3815 196.687 32 205 32Z"/>
</mask>
<path d="M205 32C214.565 32 223.084 36.4768 228.577 43.4493C232.961 49.0144 238.044 54.5123 244.76 56.7666C294.659 73.5149 332.843 115.784 343.805 168.066C345.15 174.485 349.264 179.946 354.369 184.063C365.731 193.228 373 207.265 373 223C373 245.436 358.223 264.419 337.871 270.75C331.611 272.698 325.772 276.243 322.153 281.709C318.264 287.583 313.974 293.167 309.32 298.421C308.449 299.404 308 300.686 308 302C308 324.091 290.091 342 268 342C265.201 342 262.469 341.712 259.832 341.164C254.612 340.079 249.142 339.79 244.079 341.462C236.182 344.07 227.994 346.039 219.576 347.309C213.189 348.273 207.614 352.037 203.002 356.56C195.788 363.636 185.904 368 175 368C159.261 368 145.644 358.909 139.115 345.692C136.256 339.903 132.255 334.497 126.557 331.461C83.4809 308.505 52.9227 265.154 47.7724 214.294C46.9245 205.92 41.1611 198.828 35.3375 192.752C30.1733 187.364 27 180.053 27 172C27 155.431 40.4315 142 57 142C57.721 142 58.3816 141.581 58.661 140.917C60.1776 137.309 61.8311 133.773 63.6151 130.315C66.9507 123.85 66.5938 116.13 64.0758 109.305C62.0865 103.913 61 98.0832 61 92C61 64.3858 83.3858 42 111 42C120.586 42 129.541 44.6975 137.149 49.3747C143.848 53.4931 151.908 55.6777 159.524 53.7197C161.698 53.1606 163.892 52.649 166.104 52.1861C173.041 50.7345 178.732 45.8682 183.729 40.844C189.163 35.3815 196.687 32 205 32Z" fill="url(#paint4_radial_3_41)" fill-opacity="0.4"/>
<path d="M166.104 52.1861L165.9 51.2073L166.104 52.1861ZM183.729 40.844L183.02 40.1388L183.729 40.844ZM139.115 345.692L138.219 346.135L139.115 345.692ZM126.557 331.461L127.028 330.578L126.557 331.461ZM219.576 347.309L219.725 348.298L219.576 347.309ZM203.002 356.56L203.702 357.274L203.002 356.56ZM259.832 341.164L259.628 342.143L259.832 341.164ZM244.079 341.462L244.393 342.412L244.079 341.462ZM63.6151 130.315L62.7264 129.857L63.6151 130.315ZM309.32 298.421L308.571 297.758L309.32 298.421ZM58.661 140.917L57.7391 140.529L58.661 140.917ZM337.871 270.75L337.574 269.795L337.871 270.75ZM322.153 281.709L322.987 282.261L322.153 281.709ZM343.805 168.066L344.783 167.861L343.805 168.066ZM354.369 184.063L353.741 184.842L354.369 184.063ZM47.7724 214.294L46.7775 214.394L47.7724 214.294ZM35.3375 192.752L34.6155 193.444L35.3375 192.752ZM228.577 43.4493L229.362 42.8305L228.577 43.4493ZM205 32V33C214.246 33 222.48 37.326 227.791 44.0681L228.577 43.4493L229.362 42.8305C223.688 35.6277 214.885 31 205 31V32ZM244.76 56.7666L244.442 57.7146C294.008 74.3512 331.938 116.34 342.826 168.272L343.805 168.066L344.783 167.861C333.749 115.228 295.31 72.6786 245.079 55.8186L244.76 56.7666ZM354.369 184.063L353.741 184.842C364.878 193.825 372 207.58 372 223H373H374C374 206.95 366.584 192.632 354.997 183.285L354.369 184.063ZM373 223H372C372 244.985 357.52 263.59 337.574 269.795L337.871 270.75L338.168 271.705C358.926 265.248 374 245.886 374 223H373ZM322.153 281.709L321.319 281.157C317.456 286.992 313.194 292.538 308.571 297.758L309.32 298.421L310.068 299.084C314.753 293.795 319.072 288.174 322.987 282.261L322.153 281.709ZM308 302H307C307 323.539 289.539 341 268 341V342V343C290.644 343 309 324.644 309 302H308ZM268 342V341C265.269 341 262.606 340.719 260.035 340.185L259.832 341.164L259.628 342.143C262.332 342.705 265.132 343 268 343V342ZM244.079 341.462L243.766 340.513C235.921 343.103 227.788 345.059 219.427 346.32L219.576 347.309L219.725 348.298C228.199 347.019 236.442 345.037 244.393 342.412L244.079 341.462ZM203.002 356.56L202.302 355.846C195.267 362.746 185.632 367 175 367V368V369C186.177 369 196.309 364.526 203.702 357.274L203.002 356.56ZM175 368V367C159.655 367 146.379 358.138 140.012 345.249L139.115 345.692L138.219 346.135C144.91 359.68 158.866 369 175 369V368ZM126.557 331.461L127.028 330.578C84.2362 307.775 53.883 264.711 48.7673 214.193L47.7724 214.294L46.7775 214.394C51.9625 265.597 82.7257 309.236 126.087 332.343L126.557 331.461ZM35.3375 192.752L36.0594 192.06C31.0665 186.851 28 179.785 28 172H27H26C26 180.321 29.2801 187.877 34.6155 193.444L35.3375 192.752ZM27 172H28C28 155.984 40.9837 143 57 143V142V141C39.8792 141 26 154.879 26 172H27ZM58.661 140.917L59.5828 141.304C61.0893 137.721 62.7317 134.208 64.5038 130.774L63.6151 130.315L62.7264 129.857C60.9305 133.337 59.2659 136.897 57.7391 140.529L58.661 140.917ZM64.0758 109.305L65.014 108.959C63.0649 103.676 62 97.9634 62 92H61H60C60 98.2031 61.108 104.15 63.1376 109.651L64.0758 109.305ZM61 92H62C62 64.938 83.938 43 111 43V42V41C82.8335 41 60 63.8335 60 92H61ZM111 42V43C120.395 43 129.17 45.6434 136.625 50.2266L137.149 49.3747L137.673 48.5228C129.912 43.7515 120.776 41 111 41V42ZM159.524 53.7197L159.773 54.6882C161.933 54.1328 164.112 53.6247 166.309 53.1649L166.104 52.1861L165.9 51.2073C163.673 51.6733 161.464 52.1883 159.275 52.7512L159.524 53.7197ZM183.729 40.844L184.438 41.5493C189.692 36.2676 196.963 33 205 33V32V31C196.41 31 188.634 34.4953 183.02 40.1388L183.729 40.844ZM166.104 52.1861L166.309 53.1649C173.559 51.6477 179.431 46.5833 184.438 41.5493L183.729 40.844L183.02 40.1388C178.033 45.1532 172.522 49.8213 165.9 51.2073L166.104 52.1861ZM139.115 345.692L140.012 345.249C137.108 339.369 132.987 333.754 127.028 330.578L126.557 331.461L126.087 332.343C131.524 335.241 135.404 340.437 138.219 346.135L139.115 345.692ZM219.576 347.309L219.427 346.32C212.747 347.328 206.988 351.25 202.302 355.846L203.002 356.56L203.702 357.274C208.239 352.824 213.631 349.217 219.725 348.298L219.576 347.309ZM137.149 49.3747L136.625 50.2266C143.474 54.437 151.814 56.7344 159.773 54.6882L159.524 53.7197L159.275 52.7512C152.001 54.6211 144.222 52.5492 137.673 48.5228L137.149 49.3747ZM259.832 341.164L260.035 340.185C254.728 339.082 249.061 338.764 243.766 340.513L244.079 341.462L244.393 342.412C249.222 340.817 254.496 341.076 259.628 342.143L259.832 341.164ZM63.6151 130.315L64.5038 130.774C68.0041 123.989 67.598 115.963 65.014 108.959L64.0758 109.305L63.1376 109.651C65.5895 116.297 65.8972 123.711 62.7264 129.857L63.6151 130.315ZM309.32 298.421L308.571 297.758C307.525 298.939 307 300.462 307 302H308H309C309 300.911 309.372 299.87 310.068 299.084L309.32 298.421ZM57 142V143C58.1038 143 59.1399 142.358 59.5828 141.304L58.661 140.917L57.7391 140.529C57.6232 140.805 57.3382 141 57 141V142ZM337.871 270.75L337.574 269.795C331.169 271.788 325.102 275.442 321.319 281.157L322.153 281.709L322.987 282.261C326.441 277.043 332.053 273.607 338.168 271.705L337.871 270.75ZM343.805 168.066L342.826 168.272C344.233 174.982 348.516 180.627 353.741 184.842L354.369 184.063L354.997 183.285C350.012 179.264 346.068 173.989 344.783 167.861L343.805 168.066ZM47.7724 214.294L48.7673 214.193C47.8817 205.447 41.8822 198.135 36.0594 192.06L35.3375 192.752L34.6155 193.444C40.44 199.521 45.9673 206.394 46.7775 214.394L47.7724 214.294ZM228.577 43.4493L227.791 44.0681C232.183 49.643 237.423 55.3586 244.442 57.7146L244.76 56.7666L245.079 55.8186C238.665 53.666 233.739 48.3858 229.362 42.8305L228.577 43.4493Z" fill="#E0E0E0" fill-opacity="0.3" mask="url(#path-5-inside-1_3_41)"/>
<g filter="url(#filter0_i_3_41)">
<circle cx="200" cy="200" r="124" fill="url(#paint5_radial_3_41)"/>
</g>
<path d="M138.448 231.561L122.205 205.557L137.166 196.212L138.991 199.133L127.2 206.497L132.229 214.548L142.773 207.962L144.575 210.847L134.031 217.433L139.794 226.659L151.585 219.295L153.409 222.216L138.448 231.561ZM161.232 217.329L144.989 191.325L149.264 188.655L171.114 205.957C170.696 205.393 170.184 204.706 169.579 203.895C168.982 203.046 168.364 202.162 167.723 201.241C167.091 200.283 166.508 199.376 165.974 198.521L156.851 183.916L159.951 181.98L176.193 207.984L171.919 210.654L150.104 193.33C150.508 193.87 151.008 194.565 151.604 195.414C152.185 196.239 152.792 197.131 153.424 198.09C154.065 199.01 154.66 199.91 155.209 200.788L164.331 215.393L161.232 217.329ZM189.645 199.582L166.705 177.761L170.018 175.692L185.471 190.601C186.551 191.643 187.532 192.632 188.413 193.567C189.279 194.478 189.931 195.178 190.367 195.664C190.121 195.059 189.766 194.174 189.303 193.011C188.85 191.809 188.391 190.494 187.929 189.066L181.274 168.661L184.516 166.636L194.026 196.845L189.645 199.582Z" fill="#755E38" fill-opacity="0.1"/>
<path d="M243.623 228.293C241.849 227.775 240.402 226.987 239.281 225.931C238.187 224.882 237.462 223.62 237.106 222.145C236.784 220.65 236.878 219.03 237.389 217.283L241.276 203.979C241.794 202.205 242.587 200.789 243.655 199.73C244.75 198.679 246.04 198.006 247.527 197.711C249.04 197.424 250.684 197.539 252.457 198.057C254.231 198.576 255.661 199.373 256.747 200.448C257.841 201.497 258.552 202.755 258.882 204.223C259.212 205.69 259.121 207.297 258.611 209.044L254.983 207.984C255.47 206.318 255.399 204.912 254.771 203.766C254.178 202.6 253.089 201.786 251.503 201.323C249.918 200.86 248.538 200.938 247.365 201.558C246.219 202.186 245.403 203.333 244.916 204.999L241.017 218.343C240.53 220.009 240.597 221.429 241.216 222.602C241.871 223.756 242.991 224.564 244.577 225.028C246.163 225.491 247.515 225.405 248.634 224.769C249.788 224.115 250.609 222.954 251.096 221.288L254.724 222.348C254.221 224.068 253.432 225.471 252.356 226.557C251.288 227.616 250.007 228.306 248.513 228.628C247.027 228.923 245.397 228.812 243.623 228.293ZM262.31 233.316L270.909 203.886L274.537 204.946L266.904 231.07L280.208 234.957L279.242 238.263L262.31 233.316ZM288.095 240.85L289.061 237.544L295.068 239.299L301.735 216.481L295.728 214.726L296.694 211.42L312.417 216.014L311.451 219.32L305.444 217.565L298.777 240.383L304.784 242.138L303.818 245.444L288.095 240.85Z" fill="#755E38" fill-opacity="0.1"/>
<path d="M88.6872 167.052L80.5181 137.5L84.1614 136.493L87.6529 149.124L97.1256 146.505L93.6342 133.875L97.2775 132.868L105.447 162.419L101.803 163.426L98.0433 149.825L88.5705 152.443L92.3306 166.045L88.6872 167.052ZM123.476 157.871C121.695 158.363 120.063 158.451 118.581 158.135C117.127 157.811 115.873 157.111 114.821 156.037C113.788 154.928 113.029 153.496 112.544 151.742L108.851 138.383C108.359 136.602 108.275 134.984 108.599 133.529C108.95 132.067 109.666 130.823 110.748 129.797C111.857 128.765 113.302 128.002 115.083 127.51C116.864 127.017 118.482 126.933 119.937 127.257C121.419 127.574 122.673 128.273 123.698 129.355C124.751 130.429 125.519 131.844 126.004 133.598L129.708 146.997C130.193 148.752 130.264 150.373 129.92 151.863C129.596 153.318 128.88 154.562 127.771 155.594C126.689 156.62 125.257 157.379 123.476 157.871ZM122.57 154.592C124.162 154.152 125.253 153.371 125.844 152.249C126.454 151.093 126.527 149.678 126.065 148.005L122.372 134.646C121.909 132.972 121.123 131.81 120.013 131.158C118.923 130.472 117.582 130.349 115.99 130.789C114.424 131.221 113.337 132.016 112.727 133.172C112.109 134.302 112.032 135.703 112.494 137.376L116.187 150.735C116.65 152.408 117.44 153.584 118.557 154.263C119.667 154.915 121.004 155.025 122.57 154.592ZM140.594 152.703L132.424 123.152L137.201 121.831L142.919 130.534C143.455 131.316 143.963 132.105 144.445 132.901C144.919 133.671 145.273 134.27 145.508 134.699C145.516 134.203 145.513 133.507 145.497 132.61C145.474 131.687 145.475 130.743 145.499 129.778L145.783 119.459L150.56 118.138L158.729 147.69L155.167 148.675L152.202 137.947C151.873 136.76 151.541 135.399 151.204 133.865C150.867 132.332 150.55 130.763 150.252 129.161C149.947 127.531 149.664 125.983 149.404 124.515C149.163 123.013 148.947 121.707 148.756 120.598L148.064 136.694L144.218 137.757L135.316 124.313C135.742 125.328 136.217 126.519 136.74 127.885C137.255 129.224 137.783 130.661 138.324 132.197C138.857 133.705 139.377 135.217 139.883 136.733C140.389 138.249 140.825 139.668 141.191 140.991L144.156 151.719L140.594 152.703ZM167.863 145.165L159.693 115.614L176.696 110.913L177.613 114.233L164.214 117.937L166.743 127.086L178.726 123.773L179.632 127.052L167.649 130.365L170.548 140.85L183.947 137.146L184.865 140.465L167.863 145.165Z" fill="#755E38" fill-opacity="0.1"/>
<path d="M100.38 281.154L104.185 250.731L113.979 251.956C115.868 252.192 117.46 252.772 118.756 253.696C120.055 254.592 120.996 255.754 121.579 257.182C122.19 258.613 122.381 260.245 122.152 262.079C121.926 263.884 121.339 265.42 120.391 266.684C119.474 267.923 118.274 268.832 116.791 269.408C115.311 269.957 113.627 270.113 111.738 269.876L105.695 269.121L104.131 281.623L100.38 281.154ZM106.117 265.745L112.16 266.501C113.799 266.706 115.167 266.369 116.265 265.49C117.394 264.587 118.064 263.289 118.276 261.594C118.491 259.871 118.162 258.447 117.286 257.322C116.439 256.2 115.196 255.537 113.557 255.332L107.514 254.576L106.117 265.745ZM127.453 284.54L131.258 254.117L140.676 255.295C142.482 255.521 144.019 256.094 145.287 257.014C146.558 257.907 147.487 259.053 148.073 260.453C148.66 261.852 148.844 263.427 148.625 265.178C148.368 267.234 147.606 268.93 146.338 270.267C145.098 271.608 143.527 272.441 141.623 272.768L146.332 286.901L141.914 286.349L137.695 272.7L132.819 272.09L131.204 285.009L127.453 284.54ZM133.242 268.714L138.909 269.423C140.465 269.617 141.776 269.288 142.843 268.433C143.912 267.551 144.548 266.305 144.75 264.693C144.955 263.054 144.646 261.689 143.823 260.598C143 259.508 141.81 258.865 140.254 258.671L134.586 257.962L133.242 268.714ZM163.142 289.427C161.308 289.197 159.768 288.652 158.521 287.791C157.302 286.933 156.413 285.806 155.854 284.41C155.326 282.989 155.175 281.376 155.401 279.57L157.121 265.817C157.351 263.983 157.894 262.457 158.752 261.238C159.638 260.023 160.777 259.149 162.17 258.618C163.59 258.09 165.217 257.941 167.051 258.17C168.885 258.399 170.411 258.943 171.63 259.801C172.877 260.662 173.766 261.789 174.297 263.182C174.856 264.578 175.023 266.179 174.797 267.985L173.072 281.78C172.846 283.586 172.288 285.11 171.399 286.354C170.541 287.573 169.402 288.446 167.982 288.974C166.589 289.505 164.976 289.656 163.142 289.427ZM163.564 286.051C165.203 286.256 166.511 285.954 167.487 285.145C168.494 284.311 169.105 283.033 169.321 281.311L171.041 267.558C171.256 265.835 170.977 264.46 170.202 263.432C169.459 262.38 168.268 261.751 166.629 261.546C165.017 261.344 163.708 261.66 162.701 262.494C161.697 263.299 161.088 264.564 160.872 266.286L159.152 280.039C158.937 281.762 159.214 283.151 159.985 284.207C160.76 285.235 161.953 285.849 163.564 286.051ZM181.723 291.327L185.533 260.863L203.454 263.104L203.026 266.521L188.773 264.739L187.507 274.866L200.676 276.513L200.249 279.93L187.163 278.293L185.474 291.796L181.723 291.327ZM209.213 294.765L209.64 291.348L215.85 292.124L218.8 268.536L212.59 267.759L213.018 264.342L229.271 266.375L228.844 269.792L222.634 269.016L219.684 292.604L225.894 293.38L225.466 296.798L209.213 294.765ZM236.702 298.203L240.507 267.78L244.258 268.249L240.88 295.255L254.633 296.975L254.206 300.392L236.702 298.203ZM263.15 301.511L266.955 271.088L284.458 273.277L284.031 276.694L270.236 274.969L269.058 284.387L281.394 285.93L280.972 289.306L268.636 287.763L267.286 298.557L281.081 300.282L280.653 303.7L263.15 301.511Z" fill="#755E38" fill-opacity="0.1"/>
<path d="M202.365 96.9043C200.929 95.7413 199.898 94.4561 199.272 93.0487C198.668 91.6589 198.486 90.2147 198.727 88.7163C199.007 87.2136 199.72 85.7551 200.865 84.3407L209.588 73.5694C210.751 72.1332 212.029 71.1328 213.423 70.5683C214.839 70.0213 216.289 69.8987 217.774 70.2005C219.281 70.5199 220.752 71.2611 222.188 72.4241C223.625 73.5871 224.636 74.8743 225.222 76.2859C225.826 77.6757 225.997 79.1111 225.735 80.5919C225.472 82.0728 224.768 83.5204 223.623 84.9349L220.685 82.556C221.778 81.2069 222.256 79.8826 222.119 78.583C222.022 77.2793 221.331 76.1076 220.047 75.068C218.764 74.0283 217.461 73.568 216.14 73.687C214.84 73.8236 213.644 74.5664 212.552 75.9156L203.803 86.7195C202.71 88.0686 202.224 89.4039 202.343 90.7252C202.501 92.0424 203.222 93.2208 204.506 94.2604C205.79 95.3001 207.071 95.7428 208.348 95.5886C209.666 95.4302 210.87 94.6765 211.963 93.3273L214.901 95.7061C213.773 97.0988 212.503 98.0883 211.092 98.6746C209.698 99.2392 208.249 99.3815 206.747 99.1015C205.262 98.7997 203.801 98.0673 202.365 96.9043ZM223.491 113.903C222.055 112.74 221.034 111.464 220.43 110.074C219.826 108.684 219.645 107.24 219.885 105.742C220.166 104.239 220.878 102.781 222.024 101.366L225.883 96.6006C227.046 95.1645 228.324 94.1641 229.718 93.5995C231.134 93.0525 232.584 92.93 234.069 93.2318C235.554 93.5336 237.015 94.2659 238.451 95.4289C239.887 96.5919 240.907 97.8683 241.511 99.2581C242.115 100.648 242.286 102.083 242.023 103.564C241.783 105.063 241.09 106.519 239.944 107.933L236.059 112.732C234.914 114.146 233.624 115.138 232.191 115.706C230.797 116.271 229.357 116.402 227.872 116.1C226.387 115.799 224.927 115.066 223.491 113.903ZM225.605 111.292C226.889 112.332 228.181 112.783 229.48 112.647C230.78 112.51 231.994 111.745 233.121 110.353L236.98 105.587C238.108 104.195 238.604 102.849 238.467 101.549C238.33 100.249 237.62 99.0798 236.336 98.0401C235.074 97.0181 233.782 96.5666 232.461 96.6856C231.162 96.8222 229.948 97.5868 228.82 98.9795L224.961 103.745C223.833 105.138 223.338 106.484 223.475 107.783C223.633 109.1 224.343 110.27 225.605 111.292ZM238.116 125.314L252.654 107.362L255.591 109.741L252.816 113.168L253.436 113.671L252.261 113.854C253.406 112.439 254.712 111.695 256.177 111.621C257.66 111.524 259.152 112.084 260.654 113.3C262.46 114.763 263.447 116.481 263.614 118.454C263.782 120.427 263.09 122.371 261.54 124.286L251.76 136.363L248.822 133.984L258.338 122.233C259.377 120.95 259.822 119.688 259.672 118.45C259.561 117.207 258.918 116.11 257.743 115.159C256.525 114.172 255.257 113.758 253.94 113.916C252.644 114.092 251.433 114.877 250.305 116.269L241.054 127.693L238.116 125.314ZM263.498 145.868L274.414 132.387L269.191 128.158L271.359 125.482L276.581 129.711L279.092 126.61C280.238 125.196 281.582 124.447 283.126 124.364C284.688 124.26 286.252 124.842 287.819 126.111L293.074 130.366L290.907 133.043L285.652 128.787C284.977 128.241 284.323 127.981 283.689 128.008C283.094 128.031 282.541 128.358 282.03 128.989L279.519 132.09L286.863 138.037L284.696 140.713L277.351 134.766L266.435 148.247L263.498 145.868ZM280.295 159.469L282.462 156.793L288.827 161.947L299.029 149.348L293.481 144.855L295.648 142.178L304.134 149.05L291.765 164.326L297.803 169.216L295.636 171.892L280.295 159.469ZM304.956 144.365C304.238 143.784 303.822 143.141 303.708 142.436C303.594 141.731 303.793 141.063 304.304 140.432C304.832 139.779 305.453 139.435 306.166 139.4C306.897 139.343 307.621 139.606 308.339 140.187C309.057 140.769 309.464 141.423 309.561 142.149C309.675 142.854 309.467 143.533 308.939 144.185C308.428 144.816 307.816 145.15 307.103 145.185C306.39 145.22 305.674 144.947 304.956 144.365ZM299.221 184.524L301.389 181.847L307.101 186.473C308.015 187.213 308.846 187.543 309.594 187.465C310.364 187.404 311.101 186.938 311.806 186.067L313.656 183.783L316.365 180.572L315.777 180.096L316.729 180.055C315.671 181.361 314.399 182.042 312.912 182.099C311.425 182.156 309.952 181.594 308.494 180.413C306.645 178.916 305.671 177.137 305.574 175.076C305.495 172.994 306.283 170.931 307.94 168.885L311.006 165.099C312.662 163.053 314.508 161.864 316.543 161.531C318.579 161.197 320.521 161.779 322.371 163.277C323.829 164.458 324.685 165.781 324.938 167.248C325.192 168.714 324.79 170.1 323.733 171.406L323.574 170.467L324.129 170.916L326.905 167.489L329.81 169.841L314.744 188.446C313.44 190.057 311.908 190.924 310.15 191.049C308.413 191.192 306.663 190.55 304.901 189.123L299.221 184.524ZM311.437 178.581C312.656 179.568 313.922 179.962 315.235 179.765C316.548 179.567 317.751 178.793 318.843 177.444L321.618 174.017C322.711 172.668 323.217 171.331 323.138 170.005C323.058 168.68 322.409 167.524 321.19 166.537C319.95 165.532 318.682 165.118 317.387 165.294C316.113 165.488 314.912 166.281 313.785 167.674L311.009 171.101C309.882 172.493 309.355 173.833 309.431 175.119C309.528 176.423 310.197 177.577 311.437 178.581Z" fill="#755E38" fill-opacity="0.1"/>
<g filter="url(#filter1_d_3_41)">
<path d="M109.031 214V187.4H121.191C123.623 187.4 125.713 187.793 127.461 188.578C129.234 189.363 130.602 190.503 131.565 191.998C132.527 193.467 133.009 195.215 133.009 197.242C133.009 199.243 132.527 200.979 131.565 202.448C130.602 203.892 129.234 205.007 127.461 205.792C125.713 206.552 123.623 206.932 121.191 206.932H113.211L116.555 203.778V214H109.031ZM125.485 214L118.873 204.31H126.891L133.541 214H125.485ZM116.555 204.576L113.211 201.118H120.735C122.305 201.118 123.471 200.776 124.231 200.092C125.016 199.408 125.409 198.458 125.409 197.242C125.409 196.001 125.016 195.038 124.231 194.354C123.471 193.67 122.305 193.328 120.735 193.328H113.211L116.555 189.87V204.576ZM148.674 214.532C144.747 214.532 141.682 213.455 139.478 211.302C137.274 209.149 136.172 206.096 136.172 202.144V187.4H143.696V201.916C143.696 204.196 144.139 205.83 145.026 206.818C145.938 207.806 147.179 208.3 148.75 208.3C150.32 208.3 151.549 207.806 152.436 206.818C153.322 205.83 153.766 204.196 153.766 201.916V187.4H161.176V202.144C161.176 206.096 160.074 209.149 157.87 211.302C155.666 213.455 152.6 214.532 148.674 214.532ZM165.513 214V187.4H171.707L186.375 205.108H183.449V187.4H190.821V214H184.627L169.959 196.292H172.885V214H165.513ZM204.716 214.532C202.537 214.532 200.435 214.266 198.408 213.734C196.407 213.177 194.773 212.467 193.506 211.606L195.976 206.058C197.167 206.818 198.535 207.451 200.08 207.958C201.651 208.439 203.209 208.68 204.754 208.68C205.793 208.68 206.629 208.591 207.262 208.414C207.895 208.211 208.351 207.958 208.63 207.654C208.934 207.325 209.086 206.945 209.086 206.514C209.086 205.906 208.807 205.425 208.25 205.07C207.693 204.715 206.971 204.424 206.084 204.196C205.197 203.968 204.209 203.74 203.12 203.512C202.056 203.284 200.979 202.993 199.89 202.638C198.826 202.283 197.851 201.827 196.964 201.27C196.077 200.687 195.355 199.94 194.798 199.028C194.241 198.091 193.962 196.913 193.962 195.494C193.962 193.898 194.393 192.454 195.254 191.162C196.141 189.87 197.458 188.831 199.206 188.046C200.954 187.261 203.133 186.868 205.742 186.868C207.49 186.868 209.2 187.071 210.872 187.476C212.569 187.856 214.077 188.426 215.394 189.186L213.076 194.772C211.809 194.088 210.555 193.581 209.314 193.252C208.073 192.897 206.869 192.72 205.704 192.72C204.665 192.72 203.829 192.834 203.196 193.062C202.563 193.265 202.107 193.543 201.828 193.898C201.549 194.253 201.41 194.658 201.41 195.114C201.41 195.697 201.676 196.165 202.208 196.52C202.765 196.849 203.487 197.128 204.374 197.356C205.286 197.559 206.274 197.774 207.338 198.002C208.427 198.23 209.504 198.521 210.568 198.876C211.657 199.205 212.645 199.661 213.532 200.244C214.419 200.801 215.128 201.549 215.66 202.486C216.217 203.398 216.496 204.551 216.496 205.944C216.496 207.489 216.053 208.921 215.166 210.238C214.305 211.53 213 212.569 211.252 213.354C209.529 214.139 207.351 214.532 204.716 214.532ZM226.128 197.698H238.478V203.322H226.128V197.698ZM226.66 208.186H240.568V214H219.212V187.4H240.074V193.214H226.66V208.186ZM240.791 214L252.533 187.4H259.943L271.723 214H263.895L254.699 191.086H257.663L248.467 214H240.791ZM247.213 208.832L249.151 203.284H262.147L264.085 208.832H247.213ZM273.096 214V187.4H280.62V208.034H293.312V214H273.096Z" fill="black"/>
</g>
<defs>
<clipPath id="paint3_diamond_3_41_clip_path"><path d="M205 32C214.565 32 223.084 36.4768 228.577 43.4493C232.961 49.0144 238.044 54.5123 244.76 56.7666C294.659 73.5149 332.843 115.784 343.805 168.066C345.15 174.485 349.264 179.946 354.369 184.063C365.731 193.228 373 207.265 373 223C373 245.436 358.223 264.419 337.871 270.75C331.611 272.698 325.772 276.243 322.153 281.709C318.264 287.583 313.974 293.167 309.32 298.421C308.449 299.404 308 300.686 308 302C308 324.091 290.091 342 268 342C265.201 342 262.469 341.712 259.832 341.164C254.612 340.079 249.142 339.79 244.079 341.462C236.182 344.07 227.994 346.039 219.576 347.309C213.189 348.273 207.614 352.037 203.002 356.56C195.788 363.636 185.904 368 175 368C159.261 368 145.644 358.909 139.115 345.692C136.256 339.903 132.255 334.497 126.557 331.461C83.4809 308.505 52.9227 265.154 47.7724 214.294C46.9245 205.92 41.1611 198.828 35.3375 192.752C30.1733 187.364 27 180.053 27 172C27 155.431 40.4315 142 57 142C57.721 142 58.3816 141.581 58.661 140.917C60.1776 137.309 61.8311 133.773 63.6151 130.315C66.9507 123.85 66.5938 116.13 64.0758 109.305C62.0865 103.913 61 98.0832 61 92C61 64.3858 83.3858 42 111 42C120.586 42 129.541 44.6975 137.149 49.3747C143.848 53.4931 151.908 55.6777 159.524 53.7197C161.698 53.1606 163.892 52.649 166.104 52.1861C173.041 50.7345 178.732 45.8682 183.729 40.844C189.163 35.3815 196.687 32 205 32Z"/></clipPath><filter id="filter0_i_3_41" x="76" y="76" width="248" height="248" filterUnits="userSpaceOnUse" color-interpolation-filters="sRGB">
<feFlood flood-opacity="0" result="BackgroundImageFix"/>
<feBlend mode="normal" in="SourceGraphic" in2="BackgroundImageFix" result="shape"/>
<feColorMatrix in="SourceAlpha" type="matrix" values="0 0 0 0 0 0 0 0 0 0 0 0 0 0 0 0 0 0 127 0" result="hardAlpha"/>
<feOffset/>
<feGaussianBlur stdDeviation="5"/>
<feComposite in2="hardAlpha" operator="arithmetic" k2="-1" k3="1"/>
<feColorMatrix type="matrix" values="0 0 0 0 0 0 0 0 0 0 0 0 0 0 0 0 0 0 1 0"/>
<feBlend mode="normal" in2="shape" result="effect1_innerShadow_3_41"/>
</filter>
<filter id="filter1_d_3_41" x="105.031" y="180.868" width="192.281" height="35.664" filterUnits="userSpaceOnUse" color-interpolation-filters="sRGB">
<feFlood flood-opacity="0" result="BackgroundImageFix"/>
<feColorMatrix in="SourceAlpha" type="matrix" values="0 0 0 0 0 0 0 0 0 0 0 0 0 0 0 0 0 0 127 0" result="hardAlpha"/>
<feOffset dy="-2"/>
<feGaussianBlur stdDeviation="2"/>
<feComposite in2="hardAlpha" operator="out"/>
<feColorMatrix type="matrix" values="0 0 0 0 0 0 0 0 0 0 0 0 0 0 0 0 0 0 0.4 0"/>
<feBlend mode="normal" in2="BackgroundImageFix" result="effect1_dropShadow_3_41"/>
<feBlend mode="normal" in="SourceGraphic" in2="effect1_dropShadow_3_41" result="shape"/>
</filter>
<linearGradient id="paint0_linear_3_41" x1="-23.5" y1="185.5" x2="434" y2="176.5" gradientUnits="userSpaceOnUse">
<stop stop-color="#FCA8A8"/>
<stop offset="1"/>
</linearGradient>
<linearGradient id="paint1_linear_3_41" x1="100" y1="373" x2="267.5" y2="25.5" gradientUnits="userSpaceOnUse">
<stop stop-color="#FCA8A8"/>
<stop offset="1"/>
</linearGradient>
<linearGradient id="paint2_linear_3_41" x1="307.5" y1="319.5" x2="82.5" y2="49.5" gradientUnits="userSpaceOnUse">
<stop stop-color="#FCA8A8"/>
<stop offset="1"/>
</linearGradient>
<linearGradient id="paint3_diamond_3_41" x1="0" y1="0" x2="500" y2="500" gradientUnits="userSpaceOnUse">
<stop stop-color="#FCA8A8"/>
<stop offset="1"/>
</linearGradient>
<radialGradient id="paint4_radial_3_41" cx="0" cy="0" r="1" gradientUnits="userSpaceOnUse" gradientTransform="translate(195 184.5) rotate(-129.806) scale(175.731 180.961)">
<stop stop-color="#FCA8A8"/>
<stop offset="1"/>
</radialGradient>
<radialGradient id="paint5_radial_3_41" cx="0" cy="0" r="1" gradientUnits="userSpaceOnUse" gradientTransform="translate(200 200) rotate(90) scale(124)">
<stop stop-color="#B27A2F"/>
<stop offset="1" stop-color="#8A6D3B"/>
</radialGradient>
</defs>
</svg>
